<mxfile host="app.diagrams.net" modified="2024-02-21T16:15:35.246Z" agent="Mozilla/5.0 (Macintosh; Intel Mac OS X 10.15; rv:122.0) Gecko/20100101 Firefox/122.0" version="23.1.2" etag="TUi_eKVPAZwtP-1DH2AQ" type="github">
  <diagram name="Page-1" id="9RqiBGRZdu2YEoczq6_A">
    <mxGraphModel>
      <root>
        <mxCell id="0" />
        <mxCell id="1" parent="0" />
      </root>
    </mxGraphModel>
  </diagram>
</mxfile>
